# xmcd CD database file
#
# Track frame offsets:
#	150
#	14397
#	31537
#	47950
#	63662
#	81567
#	93510
#	107847
#	125370
#	139062
#	156295
#	172950
#
# Disc length: 2457 seconds
#
# Revision: 0
# Processed by: cddbd v1.5.1PL2 Copyright (c) Steve Scherf et al.
# Submitted via: CDex 1.51
#
DISCID=9e09970c
DTITLE=DC and The Country Boys - Traveling Country Band
DYEAR=1900
DGENRE=Country
TTITLE0=Traveling Country Band
TTITLE1=If I Give My Soul
TTITLE2=Only In My Dreams
TTITLE3=Fade Away
TTITLE4=Storms Never Last
TTITLE5=Old Joe Clark
TTITLE6=The Only One Who Cares
TTITLE7=Heart Of Texas
TTITLE8=Just A Fool To Hang Around
TTITLE9=The Bottle Let Me Down
TTITLE10=Dynamite Woman
TTITLE11=Boil Them Cabbage
EXTD=
EXTT0=
EXTT1=
EXTT2=
EXTT3=
EXTT4=
EXTT5=
EXTT6=
EXTT7=
EXTT8=
EXTT9=
EXTT10=
EXTT11=
PLAYORDER=
